<svg width="513" height="140" viewBox="0 0 513 140" fill="none" xmlns="http://www.w3.org/2000/svg">
<rect width="513" height="140" rx="14" fill="#DDECF8"/>
<path d="M187.773 25.8182H140.645C137.392 25.8182 134.755 28.4557 134.755 31.7091V108.291C134.755 111.544 137.392 114.182 140.645 114.182H187.773C191.026 114.182 193.664 111.544 193.664 108.291V31.7091C193.664 28.4557 191.026 25.8182 187.773 25.8182Z" fill="#3FAE5C" fill-opacity="0.35"/>
<path d="M305.591 25.8182H209.373C206.119 25.8182 203.482 28.4557 203.482 31.7091V108.291C203.482 111.544 206.119 114.182 209.373 114.182H305.591C308.844 114.182 311.482 111.544 311.482 108.291V31.7091C311.482 28.4557 308.844 25.8182 305.591 25.8182Z" fill="#E2477C" fill-opacity="0.35"/>
<path d="M372.355 25.8182H327.191C323.937 25.8182 321.3 28.4557 321.3 31.7091V108.291C321.3 111.544 323.937 114.182 327.191 114.182H372.355C375.608 114.182 378.245 111.544 378.245 108.291V31.7091C378.245 28.4557 375.608 25.8182 372.355 25.8182Z" fill="#F5C242" fill-opacity="0.45"/>
<path d="M182.864 37.6H145.555C143.928 37.6 142.609 38.9187 142.609 40.5454V48.4C142.609 50.0267 143.928 51.3454 145.555 51.3454H182.864C184.49 51.3454 185.809 50.0267 185.809 48.4V40.5454C185.809 38.9187 184.49 37.6 182.864 37.6Z" fill="#3FAE5C"/>
<path d="M182.864 67.0546H145.555C143.928 67.0546 142.609 68.3733 142.609 70V77.8546C142.609 79.4813 143.928 80.8 145.555 80.8H182.864C184.49 80.8 185.809 79.4813 185.809 77.8546V70C185.809 68.3733 184.49 67.0546 182.864 67.0546Z" fill="#3FAE5C"/>
<path d="M182.864 96.509H145.555C143.928 96.509 142.609 97.8278 142.609 99.4545V107.309C142.609 108.936 143.928 110.254 145.555 110.254H182.864C184.49 110.254 185.809 108.936 185.809 107.309V99.4545C185.809 97.8278 184.49 96.509 182.864 96.509Z" fill="#3FAE5C"/>
<path d="M254.2 33.9455C254.2 32.3187 252.881 31 251.255 31H232.6H213.945C212.319 31 211 32.3187 211 33.9455V41.8C211 43.4267 212.319 44.7455 213.945 44.7455H251.255C252.881 44.7455 254.2 43.4267 254.2 41.8V33.9455Z" fill="#E2477C"/>
<path d="M251.591 53.1636H214.282C212.655 53.1636 211.336 54.4823 211.336 56.109V63.9636C211.336 65.5903 212.655 66.909 214.282 66.909H251.591C253.218 66.909 254.536 65.5903 254.536 63.9636V56.109C254.536 54.4823 253.218 53.1636 251.591 53.1636Z" fill="#E2477C"/>
<path d="M251.255 75H213.945C212.319 75 211 76.3187 211 77.9455V85.8C211 87.4267 212.319 88.7455 213.945 88.7455H251.255C252.881 88.7455 254.2 87.4267 254.2 85.8V77.9455C254.2 76.3187 252.881 75 251.255 75Z" fill="#E2477C"/>
<path d="M251.255 96H213.945C212.319 96 211 97.3187 211 98.9455V106.8C211 108.427 212.319 109.745 213.945 109.745H251.255C252.881 109.745 254.2 108.427 254.2 106.8V98.9455C254.2 97.3187 252.881 96 251.255 96Z" fill="#E2477C"/>
<path d="M302.645 61.1636H269.264C267.637 61.1636 266.318 62.4823 266.318 64.109V75.8908C266.318 77.5176 267.637 78.8363 269.264 78.8363H302.645C304.272 78.8363 305.591 77.5176 305.591 75.8908V64.109C305.591 62.4823 304.272 61.1636 302.645 61.1636Z" fill="#E2477C"/>
<path d="M367.445 57.2363H334.064C332.437 57.2363 331.118 58.5551 331.118 60.1818V71.9636C331.118 73.5903 332.437 74.9091 334.064 74.9091H367.445C369.072 74.9091 370.391 73.5903 370.391 71.9636V60.1818C370.391 58.5551 369.072 57.2363 367.445 57.2363Z" fill="#F5C242"/>
<path d="M302.645 59.2H269.264C266.552 59.2 264.355 61.3978 264.355 64.109V75.8909C264.355 78.6021 266.552 80.8 269.264 80.8H302.645C305.357 80.8 307.555 78.6021 307.555 75.8909V64.109C307.555 61.3978 305.357 59.2 302.645 59.2Z" stroke="#2D7FD4" stroke-width="1.96364" stroke-dasharray="2.95 1.96"/>
</svg>
